<svg xmlns="http://www.w3.org/2000/svg" width="220" height="220" viewBox="0 0 220 220">
<rect width="220" height="220" fill="#fff"/>
<rect x="12" y="12" width="56" height="56" fill="#102542"/><rect x="24" y="24" width="32" height="32" fill="#fff"/><rect x="32" y="32" width="16" height="16" fill="#102542"/>
<rect x="152" y="12" width="56" height="56" fill="#102542"/><rect x="164" y="24" width="32" height="32" fill="#fff"/><rect x="172" y="32" width="16" height="16" fill="#102542"/>
<rect x="12" y="152" width="56" height="56" fill="#102542"/><rect x="24" y="164" width="32" height="32" fill="#fff"/><rect x="32" y="172" width="16" height="16" fill="#102542"/>
<g fill="#102542">
<rect x="88" y="20" width="12" height="12"/><rect x="112" y="20" width="12" height="12"/><rect x="88" y="44" width="12" height="12"/><rect x="124" y="44" width="12" height="12"/>
<rect x="88" y="84" width="12" height="12"/><rect x="112" y="84" width="12" height="12"/><rect x="136" y="84" width="12" height="12"/><rect x="160" y="84" width="12" height="12"/>
<rect x="80" y="112" width="12" height="12"/><rect x="104" y="112" width="12" height="12"/><rect x="140" y="112" width="12" height="12"/><rect x="188" y="112" width="12" height="12"/>
<rect x="84" y="140" width="12" height="12"/><rect x="120" y="140" width="12" height="12"/><rect x="156" y="140" width="12" height="12"/><rect x="184" y="140" width="12" height="12"/>
<rect x="84" y="164" width="12" height="12"/><rect x="108" y="164" width="12" height="12"/><rect x="132" y="164" width="12" height="12"/><rect x="180" y="164" width="12" height="12"/>
<rect x="84" y="188" width="12" height="12"/><rect x="120" y="188" width="12" height="12"/><rect x="156" y="188" width="12" height="12"/><rect x="192" y="188" width="12" height="12"/>
</g>
<text x="110" y="214" text-anchor="middle" font-size="11" font-family="Arial" fill="#102542">robertbering.com</text>
</svg>