<svg xmlns="http://www.w3.org/2000/svg" width="220" height="220" viewBox="0 0 220 220"><rect width="220" height="220" fill="#fff"/><rect x="12" y="12" width="58" height="58" fill="#102542"/><rect x="150" y="12" width="58" height="58" fill="#102542"/><rect x="12" y="150" width="58" height="58" fill="#102542"/><g fill="#102542"><rect x="88" y="18" width="12" height="12"/><rect x="112" y="18" width="12" height="12"/><rect x="88" y="42" width="12" height="12"/><rect x="124" y="42" width="12" height="12"/><rect x="86" y="84" width="12" height="12"/><rect x="110" y="84" width="12" height="12"/><rect x="134" y="84" width="12" height="12"/><rect x="158" y="84" width="12" height="12"/><rect x="82" y="112" width="12" height="12"/><rect x="142" y="112" width="12" height="12"/><rect x="190" y="112" width="12" height="12"/><rect x="84" y="140" width="12" height="12"/><rect x="120" y="140" width="12" height="12"/><rect x="156" y="140" width="12" height="12"/><rect x="184" y="140" width="12" height="12"/><rect x="84" y="164" width="12" height="12"/><rect x="108" y="164" width="12" height="12"/><rect x="132" y="164" width="12" height="12"/><rect x="180" y="164" width="12" height="12"/></g><text x="110" y="216" text-anchor="middle" font-size="10" font-family="Arial" fill="#102542">robertbering.com</text></svg>